<?xml version="1.0" standalone="no"?>
<!DOCTYPE svg PUBLIC "-//W3C//DTD SVG 20010904//EN"
 "http://www.w3.org/TR/2001/REC-SVG-20010904/DTD/svg10.dtd">
<svg version="1.0" xmlns="http://www.w3.org/2000/svg"
 width="128.000000pt" height="128.000000pt" viewBox="0 0 128.000000 128.000000"
 preserveAspectRatio="xMidYMid meet">
<metadata>
Created by potrace 1.14, written by Peter Selinger 2001-2017
</metadata>
<g transform="translate(0.000000,128.000000) scale(0.100000,-0.100000)"
fill="#000000" stroke="none">
<path d="M868 1188 c-30 -46 -74 -113 -97 -150 -49 -76 -69 -86 -221 -103 -60
-7 -75 -12 -134 -47 l-50 -30 -82 86 c-45 47 -86 86 -91 86 -19 0 -31 -23 -23
-44 11 -29 113 -176 149 -215 29 -31 30 -32 65 -16 20 8 52 22 72 31 20 8 38
13 41 10 3 -2 14 -44 24 -92 11 -48 22 -91 26 -97 12 -20 211 25 228 52 4 8
12 60 30 194 4 26 18 68 32 95 70 129 144 286 141 301 -2 9 -15 17 -29 19 -23
3 -33 -7 -81 -80z"/>
<path d="M1135 1247 c-2 -7 -6 -39 -9 -72 -14 -131 -78 -260 -173 -346 -46
-41 -50 -47 -39 -67 11 -22 12 -21 57 16 118 95 208 282 205 426 -1 39 -5 50
-19 52 -10 1 -20 -3 -22 -9z"/>
<path d="M529 1141 c-32 -33 -36 -58 -14 -101 13 -26 35 -39 74 -46 36 -6 90
44 91 84 1 84 -91 122 -151 63z"/>
<path d="M883 667 c-17 -12 -46 -34 -64 -48 -40 -32 -183 -79 -238 -79 -21 0
-43 -6 -49 -12 -6 -7 -48 -105 -93 -218 -60 -147 -83 -218 -83 -250 -1 -43 0
-45 29 -45 29 0 33 7 125 188 69 137 100 189 115 191 11 2 41 8 67 14 l47 9 0
-171 c0 -94 0 -186 1 -204 0 -36 26 -55 41 -31 5 8 9 106 9 219 l1 205 49 37
49 38 10 -38 c6 -20 15 -59 22 -87 26 -106 55 -149 85 -124 13 11 15 26 10 79
-3 36 -8 76 -10 90 -3 14 -12 68 -21 120 -9 52 -21 101 -27 108 -25 29 -44 32
-75 9z"/>
</g>
</svg>
